<mxfile host="app.diagrams.net" modified="2020-12-06T07:31:38.751Z" agent="5.0 (Windows)" etag="NTFiGeY4kTTlTdbjsQa1" version="13.10.9" type="github">
  <diagram id="RGe8L_a2aIqyZJqOn9al" name="Page-1">
    <mxGraphModel dx="1038" dy="547" grid="1" gridSize="10" guides="1" tooltips="1" connect="1" arrows="1" fold="1" page="1" pageScale="1" pageWidth="1169" pageHeight="827" math="0" shadow="0">
      <root>
        <mxCell id="0" />
        <mxCell id="1" parent="0" />
        <mxCell id="Dpi-eczcYg3Tv1v0k0GE-1" value="REVENUE MANAGEMENT" style="swimlane;" parent="1" vertex="1">
          <mxGeometry x="10" y="10" width="1150" height="810" as="geometry" />
        </mxCell>
        <mxCell id="emNNlxBl1gfPlvWP9FHH-1" value="Start" style="rounded=1;whiteSpace=wrap;html=1;" vertex="1" parent="Dpi-eczcYg3Tv1v0k0GE-1">
          <mxGeometry x="510" y="46" width="90" height="50" as="geometry" />
        </mxCell>
        <mxCell id="emNNlxBl1gfPlvWP9FHH-4" value="Revenue Accountant receives evidence of sales on cash &amp;amp; credit from the cash office and other Revenue generating units" style="rounded=0;whiteSpace=wrap;html=1;" vertex="1" parent="Dpi-eczcYg3Tv1v0k0GE-1">
          <mxGeometry x="460" y="156" width="190" height="80" as="geometry" />
        </mxCell>
        <mxCell id="emNNlxBl1gfPlvWP9FHH-3" value="" style="edgeStyle=orthogonalEdgeStyle;rounded=0;orthogonalLoop=1;jettySize=auto;html=1;entryX=0.5;entryY=0;entryDx=0;entryDy=0;" edge="1" parent="Dpi-eczcYg3Tv1v0k0GE-1" source="emNNlxBl1gfPlvWP9FHH-1" target="emNNlxBl1gfPlvWP9FHH-4">
          <mxGeometry relative="1" as="geometry">
            <mxPoint x="555" y="171" as="targetPoint" />
          </mxGeometry>
        </mxCell>
        <mxCell id="emNNlxBl1gfPlvWP9FHH-9" value="yes" style="text;html=1;strokeColor=none;fillColor=none;align=center;verticalAlign=middle;whiteSpace=wrap;rounded=0;" vertex="1" parent="Dpi-eczcYg3Tv1v0k0GE-1">
          <mxGeometry x="551" y="390" width="40" height="20" as="geometry" />
        </mxCell>
        <mxCell id="emNNlxBl1gfPlvWP9FHH-10" value="Note to cash officer to do a fund transfer" style="shape=note;whiteSpace=wrap;html=1;backgroundOutline=1;darkOpacity=0.05;" vertex="1" parent="Dpi-eczcYg3Tv1v0k0GE-1">
          <mxGeometry x="300" y="261" width="80" height="100" as="geometry" />
        </mxCell>
        <mxCell id="emNNlxBl1gfPlvWP9FHH-12" value="" style="edgeStyle=orthogonalEdgeStyle;rounded=0;orthogonalLoop=1;jettySize=auto;html=1;entryX=0;entryY=0.5;entryDx=0;entryDy=0;" edge="1" parent="Dpi-eczcYg3Tv1v0k0GE-1" source="emNNlxBl1gfPlvWP9FHH-10" target="emNNlxBl1gfPlvWP9FHH-4">
          <mxGeometry relative="1" as="geometry">
            <mxPoint x="340" y="200" as="targetPoint" />
            <Array as="points">
              <mxPoint x="340" y="196" />
            </Array>
          </mxGeometry>
        </mxCell>
        <mxCell id="emNNlxBl1gfPlvWP9FHH-15" value="no" style="text;html=1;strokeColor=none;fillColor=none;align=center;verticalAlign=middle;whiteSpace=wrap;rounded=0;" vertex="1" parent="Dpi-eczcYg3Tv1v0k0GE-1">
          <mxGeometry x="400" y="301" width="40" height="20" as="geometry" />
        </mxCell>
        <mxCell id="emNNlxBl1gfPlvWP9FHH-5" value="&lt;div&gt;Money banked &lt;br&gt;&lt;/div&gt;&lt;div&gt;in revenue account?&lt;/div&gt;" style="rhombus;whiteSpace=wrap;html=1;rounded=0;" vertex="1" parent="Dpi-eczcYg3Tv1v0k0GE-1">
          <mxGeometry x="460" y="286" width="190" height="80" as="geometry" />
        </mxCell>
        <mxCell id="emNNlxBl1gfPlvWP9FHH-6" value="" style="edgeStyle=orthogonalEdgeStyle;rounded=0;orthogonalLoop=1;jettySize=auto;html=1;" edge="1" parent="Dpi-eczcYg3Tv1v0k0GE-1" source="emNNlxBl1gfPlvWP9FHH-4" target="emNNlxBl1gfPlvWP9FHH-5">
          <mxGeometry relative="1" as="geometry" />
        </mxCell>
        <mxCell id="emNNlxBl1gfPlvWP9FHH-14" value="" style="edgeStyle=orthogonalEdgeStyle;rounded=0;orthogonalLoop=1;jettySize=auto;html=1;entryX=0;entryY=0;entryDx=80;entryDy=65;entryPerimeter=0;" edge="1" parent="Dpi-eczcYg3Tv1v0k0GE-1" source="emNNlxBl1gfPlvWP9FHH-5" target="emNNlxBl1gfPlvWP9FHH-10">
          <mxGeometry relative="1" as="geometry">
            <mxPoint x="345" y="356" as="targetPoint" />
          </mxGeometry>
        </mxCell>
        <mxCell id="emNNlxBl1gfPlvWP9FHH-7" value="Revenue Accountant reconciles revenue with the GL to ensure the entries are correct" style="whiteSpace=wrap;html=1;rounded=0;" vertex="1" parent="Dpi-eczcYg3Tv1v0k0GE-1">
          <mxGeometry x="480" y="436" width="150" height="80" as="geometry" />
        </mxCell>
        <mxCell id="emNNlxBl1gfPlvWP9FHH-8" value="" style="edgeStyle=orthogonalEdgeStyle;rounded=0;orthogonalLoop=1;jettySize=auto;html=1;" edge="1" parent="Dpi-eczcYg3Tv1v0k0GE-1" source="emNNlxBl1gfPlvWP9FHH-5" target="emNNlxBl1gfPlvWP9FHH-7">
          <mxGeometry relative="1" as="geometry" />
        </mxCell>
        <mxCell id="emNNlxBl1gfPlvWP9FHH-16" value="General Ledger Accountant posts in the respective revenue accounts and customers ledger accounts" style="whiteSpace=wrap;html=1;rounded=0;" vertex="1" parent="Dpi-eczcYg3Tv1v0k0GE-1">
          <mxGeometry x="470" y="576" width="170" height="80" as="geometry" />
        </mxCell>
        <mxCell id="emNNlxBl1gfPlvWP9FHH-17" value="" style="edgeStyle=orthogonalEdgeStyle;rounded=0;orthogonalLoop=1;jettySize=auto;html=1;" edge="1" parent="Dpi-eczcYg3Tv1v0k0GE-1" source="emNNlxBl1gfPlvWP9FHH-7" target="emNNlxBl1gfPlvWP9FHH-16">
          <mxGeometry relative="1" as="geometry" />
        </mxCell>
        <mxCell id="emNNlxBl1gfPlvWP9FHH-19" value="End" style="rounded=1;whiteSpace=wrap;html=1;" vertex="1" parent="Dpi-eczcYg3Tv1v0k0GE-1">
          <mxGeometry x="510" y="726" width="90" height="50" as="geometry" />
        </mxCell>
        <mxCell id="emNNlxBl1gfPlvWP9FHH-21" value="" style="edgeStyle=orthogonalEdgeStyle;rounded=0;orthogonalLoop=1;jettySize=auto;html=1;entryX=0.5;entryY=0;entryDx=0;entryDy=0;" edge="1" parent="Dpi-eczcYg3Tv1v0k0GE-1" source="emNNlxBl1gfPlvWP9FHH-16" target="emNNlxBl1gfPlvWP9FHH-19">
          <mxGeometry relative="1" as="geometry">
            <mxPoint x="555" y="746" as="targetPoint" />
          </mxGeometry>
        </mxCell>
      </root>
    </mxGraphModel>
  </diagram>
</mxfile>
